<?xml version="1.0" encoding="utf-8"?>
<!-- Generator: Adobe Illustrator 26.0.1, SVG Export Plug-In . SVG Version: 6.00 Build 0)  -->
<svg version="1.1" id="Layer_1" xmlns="http://www.w3.org/2000/svg" xmlns:xlink="http://www.w3.org/1999/xlink" x="0px" y="0px"
	 viewBox="0 0 841.89 595.28" style="enable-background:new 0 0 841.89 595.28;" xml:space="preserve">
<style type="text/css">
	.st0{fill:url(#SVGID_1_);}
	.st1{fill:#212121;}
	.st2{fill:url(#SVGID_00000167380630972161383680000016528995171188978339_);}
	.st3{fill:url(#SVGID_00000011741280563216685990000008861109966999130787_);}
	.st4{fill:url(#SVGID_00000129921790286415196370000002205152264754783147_);}
</style>
<g>
	<linearGradient id="SVGID_1_" gradientUnits="userSpaceOnUse" x1="394.6294" y1="194.4298" x2="430.2097" y2="352.3174">
		<stop  offset="0" style="stop-color:#1AFF25"/>
		<stop  offset="1" style="stop-color:#108418"/>
	</linearGradient>
	<path class="st0" d="M413.42,246.09c0,0,14.8,15.38,17.13,62.89c0,0,2.73,36.66-27.26,22.25c0,0-6.75-3.16-10.9-9.75
		c0,0,11.16,23.34,23.11,24.31c0,0,8.31,0.96,17.78-19.91c0,0,11.99-22.57,9.74-52.23C443.02,273.65,441.29,244.17,413.42,246.09z"
		/>
	<path class="st1" d="M414.17,332.03c0,0-13.59-0.14-23.88-18.57c0,0-10.22-23.63-16.79-33.23c0,0-5.53-9.59-11.12-13.93
		c0,0,12.61-6.79,22.69,7.82C395.15,288.72,401.76,319.59,414.17,332.03z"/>
	<g>
		
			<linearGradient id="SVGID_00000123434904809295277760000016208751530998159767_" gradientUnits="userSpaceOnUse" x1="314.1475" y1="184.0325" x2="324.5251" y2="329.3187">
			<stop  offset="0" style="stop-color:#FFDE17"/>
			<stop  offset="1" style="stop-color:#EF4136"/>
		</linearGradient>
		<path style="fill:url(#SVGID_00000123434904809295277760000016208751530998159767_);" d="M326.74,348.72
			c-0.74-0.2-1.48,0.27-1.67,1.05l-0.59,2.44c-0.19,0.78,0.26,1.57,0.99,1.77c0.74,0.2,1.48-0.27,1.67-1.05l0.59-2.44
			C327.91,349.71,327.47,348.92,326.74,348.72z"/>
		
			<linearGradient id="SVGID_00000108267583895645847280000016380196366114818443_" gradientUnits="userSpaceOnUse" x1="306.074" y1="184.6092" x2="316.4516" y2="329.8954">
			<stop  offset="0" style="stop-color:#FFDE17"/>
			<stop  offset="1" style="stop-color:#EF4136"/>
		</linearGradient>
		<path style="fill:url(#SVGID_00000108267583895645847280000016380196366114818443_);" d="M318.92,346.92
			c-0.07-0.02-0.14-0.03-0.22-0.04c-0.76-0.1-1.46,0.45-1.67,1.23l-1.16,4.78c-0.21,0.86,0.21,1.8,1.02,2.07
			c0.86,0.28,1.75-0.25,1.97-1.16l1.18-4.87C320.26,348.05,319.75,347.15,318.92,346.92z"/>
		
			<linearGradient id="SVGID_00000180347409048815752760000011584907261970497416_" gradientUnits="userSpaceOnUse" x1="430.0701" y1="175.7523" x2="440.4477" y2="321.0385">
			<stop  offset="0" style="stop-color:#FFDE17"/>
			<stop  offset="1" style="stop-color:#EF4136"/>
		</linearGradient>
		<path style="fill:url(#SVGID_00000180347409048815752760000011584907261970497416_);" d="M565.52,325.51
			c-0.01,0-0.02-0.01-0.03-0.01c-1.13-0.42-2.38-0.29-3.43,0.34l-23.7,11.27c-2.05,1.25-2.72,4.07-1.42,6.2
			c1.22,2,3.8,2.48,5.76,1.3l8.16-4.95c-3.71,6.74-8.55,15.95-16.78,15.95c-30.44,0-55.24-89.23-61.08-104.78
			c-8.54-22.76-31.33-54.23-66.14-45.86c-31.83,7.65-74.75,53.45-87.58,123.94l-3.48,15.09c-0.17,0.76,0.24,1.55,0.95,1.76
			c0.73,0.22,1.31-0.26,1.31-0.26c0.22-0.19,0.4-0.45,0.48-0.77l1.23-4.78c0.44-1.37,0.92-2.86,1.46-4.47
			c0.43-0.39,1.04-0.55,1.63-0.34c0.85,0.3,1.34,1.24,1.11,2.16l-2.39,9.54c-0.2,0.78,0.24,1.59,0.98,1.8
			c0.76,0.22,1.54-0.26,1.73-1.07l2.74-11.68c0.22-0.95,1.13-1.54,2.03-1.32c0.93,0.23,1.51,1.22,1.27,2.2l-2.51,10.29
			c-0.2,0.83,0.28,1.67,1.08,1.86c0.77,0.19,1.54-0.33,1.72-1.14l4.65-20.83c3.3-13.56,15.81-59.34,40.76-89.69v0
			c6.46-6.51,12.66-11.19,18.66-13.93c8.97-3.7,20.3-4.34,31.95,5.45c5.36,4.66,10.67,11.3,15.99,20.03
			c19.56,32.1,33.16,64.85,33.65,65.86c25.52,57,57.17,52.98,57.17,52.98c15.59-0.89,21.55-13.44,26.55-23.7l3.05-5.95c0,0,0,0,0,0
			h0l1.98-4.37l2-4.12C567.76,327.99,567.06,326.08,565.52,325.51z"/>
	</g>
</g>
</svg>
